<mxfile host="app.diagrams.net" agent="Mozilla/5.0 (Windows NT 10.0; Win64; x64) AppleWebKit/537.36 (KHTML, like Gecko) Chrome/123.0.0.0 Safari/537.36 OPR/109.0.0.0" version="24.7.7">
  <diagram name="PÃ¡gina-1" id="_sBV1_8d2K-Yy8zrgml7">
    <mxGraphModel dx="986" dy="524" grid="1" gridSize="10" guides="1" tooltips="1" connect="1" arrows="1" fold="1" page="1" pageScale="1" pageWidth="827" pageHeight="1169" math="0" shadow="0">
      <root>
        <mxCell id="0" />
        <mxCell id="1" parent="0" />
        <mxCell id="1kbJixUE2xFf0A5VzTWB-33" value="" style="edgeStyle=orthogonalEdgeStyle;rounded=0;orthogonalLoop=1;jettySize=auto;html=1;" edge="1" parent="1" source="1kbJixUE2xFf0A5VzTWB-27" target="1kbJixUE2xFf0A5VzTWB-30">
          <mxGeometry relative="1" as="geometry" />
        </mxCell>
        <mxCell id="1kbJixUE2xFf0A5VzTWB-27" value="onCreate()" style="rounded=1;whiteSpace=wrap;html=1;" vertex="1" parent="1">
          <mxGeometry x="360" y="160" width="120" height="40" as="geometry" />
        </mxCell>
        <mxCell id="1kbJixUE2xFf0A5VzTWB-29" value="" style="edgeStyle=orthogonalEdgeStyle;rounded=0;orthogonalLoop=1;jettySize=auto;html=1;" edge="1" parent="1" source="1kbJixUE2xFf0A5VzTWB-28" target="1kbJixUE2xFf0A5VzTWB-27">
          <mxGeometry relative="1" as="geometry" />
        </mxCell>
        <mxCell id="1kbJixUE2xFf0A5VzTWB-28" value="Activity Lauched" style="shape=process;whiteSpace=wrap;html=1;backgroundOutline=1;" vertex="1" parent="1">
          <mxGeometry x="360" y="40" width="120" height="60" as="geometry" />
        </mxCell>
        <mxCell id="1kbJixUE2xFf0A5VzTWB-34" value="" style="edgeStyle=orthogonalEdgeStyle;rounded=0;orthogonalLoop=1;jettySize=auto;html=1;" edge="1" parent="1" source="1kbJixUE2xFf0A5VzTWB-30" target="1kbJixUE2xFf0A5VzTWB-31">
          <mxGeometry relative="1" as="geometry" />
        </mxCell>
        <mxCell id="1kbJixUE2xFf0A5VzTWB-30" value="onStart()" style="rounded=1;whiteSpace=wrap;html=1;" vertex="1" parent="1">
          <mxGeometry x="360" y="240" width="120" height="40" as="geometry" />
        </mxCell>
        <mxCell id="1kbJixUE2xFf0A5VzTWB-35" value="" style="edgeStyle=orthogonalEdgeStyle;rounded=0;orthogonalLoop=1;jettySize=auto;html=1;" edge="1" parent="1" source="1kbJixUE2xFf0A5VzTWB-31" target="1kbJixUE2xFf0A5VzTWB-32">
          <mxGeometry relative="1" as="geometry" />
        </mxCell>
        <mxCell id="1kbJixUE2xFf0A5VzTWB-31" value="onResume()" style="rounded=1;whiteSpace=wrap;html=1;" vertex="1" parent="1">
          <mxGeometry x="360" y="320" width="120" height="40" as="geometry" />
        </mxCell>
        <mxCell id="1kbJixUE2xFf0A5VzTWB-46" style="edgeStyle=orthogonalEdgeStyle;rounded=0;orthogonalLoop=1;jettySize=auto;html=1;" edge="1" parent="1" source="1kbJixUE2xFf0A5VzTWB-32" target="1kbJixUE2xFf0A5VzTWB-38">
          <mxGeometry relative="1" as="geometry" />
        </mxCell>
        <mxCell id="1kbJixUE2xFf0A5VzTWB-32" value="Activity Running" style="shape=process;whiteSpace=wrap;html=1;backgroundOutline=1;" vertex="1" parent="1">
          <mxGeometry x="360" y="400" width="120" height="60" as="geometry" />
        </mxCell>
        <mxCell id="1kbJixUE2xFf0A5VzTWB-37" style="edgeStyle=orthogonalEdgeStyle;rounded=0;orthogonalLoop=1;jettySize=auto;html=1;" edge="1" parent="1" source="1kbJixUE2xFf0A5VzTWB-36" target="1kbJixUE2xFf0A5VzTWB-30">
          <mxGeometry relative="1" as="geometry" />
        </mxCell>
        <mxCell id="1kbJixUE2xFf0A5VzTWB-36" value="onRestart()" style="rounded=1;whiteSpace=wrap;html=1;" vertex="1" parent="1">
          <mxGeometry x="640" y="240" width="120" height="40" as="geometry" />
        </mxCell>
        <mxCell id="1kbJixUE2xFf0A5VzTWB-49" style="edgeStyle=orthogonalEdgeStyle;rounded=0;orthogonalLoop=1;jettySize=auto;html=1;" edge="1" parent="1" source="1kbJixUE2xFf0A5VzTWB-38" target="1kbJixUE2xFf0A5VzTWB-48">
          <mxGeometry relative="1" as="geometry" />
        </mxCell>
        <mxCell id="1kbJixUE2xFf0A5VzTWB-56" style="edgeStyle=orthogonalEdgeStyle;rounded=0;orthogonalLoop=1;jettySize=auto;html=1;entryX=1;entryY=0.5;entryDx=0;entryDy=0;exitX=1;exitY=0.5;exitDx=0;exitDy=0;" edge="1" parent="1" source="1kbJixUE2xFf0A5VzTWB-38" target="1kbJixUE2xFf0A5VzTWB-31">
          <mxGeometry relative="1" as="geometry">
            <mxPoint x="500" y="340" as="targetPoint" />
            <mxPoint x="500" y="540" as="sourcePoint" />
            <Array as="points">
              <mxPoint x="620" y="540" />
              <mxPoint x="620" y="340" />
            </Array>
          </mxGeometry>
        </mxCell>
        <mxCell id="1kbJixUE2xFf0A5VzTWB-38" value="onPause()" style="rounded=1;whiteSpace=wrap;html=1;" vertex="1" parent="1">
          <mxGeometry x="360" y="520" width="120" height="40" as="geometry" />
        </mxCell>
        <mxCell id="1kbJixUE2xFf0A5VzTWB-44" value="Another Activity comes to foreground" style="text;html=1;align=center;verticalAlign=middle;whiteSpace=wrap;rounded=0;" vertex="1" parent="1">
          <mxGeometry x="270" y="480" width="140" height="30" as="geometry" />
        </mxCell>
        <mxCell id="1kbJixUE2xFf0A5VzTWB-47" value="This Activity is no longer visible" style="text;html=1;align=center;verticalAlign=middle;whiteSpace=wrap;rounded=0;" vertex="1" parent="1">
          <mxGeometry x="300" y="584.5" width="110" height="30" as="geometry" />
        </mxCell>
        <mxCell id="1kbJixUE2xFf0A5VzTWB-52" style="edgeStyle=orthogonalEdgeStyle;rounded=0;orthogonalLoop=1;jettySize=auto;html=1;entryX=0.5;entryY=1;entryDx=0;entryDy=0;" edge="1" parent="1" source="1kbJixUE2xFf0A5VzTWB-48" target="1kbJixUE2xFf0A5VzTWB-51">
          <mxGeometry relative="1" as="geometry" />
        </mxCell>
        <mxCell id="1kbJixUE2xFf0A5VzTWB-58" style="edgeStyle=orthogonalEdgeStyle;rounded=0;orthogonalLoop=1;jettySize=auto;html=1;entryX=0.5;entryY=1;entryDx=0;entryDy=0;" edge="1" parent="1" source="1kbJixUE2xFf0A5VzTWB-48" target="1kbJixUE2xFf0A5VzTWB-36">
          <mxGeometry relative="1" as="geometry" />
        </mxCell>
        <mxCell id="1kbJixUE2xFf0A5VzTWB-60" style="edgeStyle=orthogonalEdgeStyle;rounded=0;orthogonalLoop=1;jettySize=auto;html=1;entryX=0.5;entryY=0;entryDx=0;entryDy=0;" edge="1" parent="1" source="1kbJixUE2xFf0A5VzTWB-48" target="1kbJixUE2xFf0A5VzTWB-61">
          <mxGeometry relative="1" as="geometry">
            <mxPoint x="420" y="760" as="targetPoint" />
          </mxGeometry>
        </mxCell>
        <mxCell id="1kbJixUE2xFf0A5VzTWB-48" value="onStop()" style="rounded=1;whiteSpace=wrap;html=1;" vertex="1" parent="1">
          <mxGeometry x="360" y="640" width="120" height="40" as="geometry" />
        </mxCell>
        <mxCell id="1kbJixUE2xFf0A5VzTWB-50" value="Apps with higher priority need memory" style="text;html=1;align=center;verticalAlign=middle;whiteSpace=wrap;rounded=0;" vertex="1" parent="1">
          <mxGeometry x="70" y="520" width="140" height="30" as="geometry" />
        </mxCell>
        <mxCell id="1kbJixUE2xFf0A5VzTWB-54" style="edgeStyle=orthogonalEdgeStyle;rounded=0;orthogonalLoop=1;jettySize=auto;html=1;entryX=0;entryY=0.5;entryDx=0;entryDy=0;exitX=0.5;exitY=0;exitDx=0;exitDy=0;" edge="1" parent="1" source="1kbJixUE2xFf0A5VzTWB-51" target="1kbJixUE2xFf0A5VzTWB-27">
          <mxGeometry relative="1" as="geometry">
            <mxPoint x="290" y="180" as="targetPoint" />
            <Array as="points">
              <mxPoint x="220" y="180" />
            </Array>
          </mxGeometry>
        </mxCell>
        <mxCell id="1kbJixUE2xFf0A5VzTWB-51" value="App Process killed" style="shape=process;whiteSpace=wrap;html=1;backgroundOutline=1;" vertex="1" parent="1">
          <mxGeometry x="160" y="400" width="120" height="60" as="geometry" />
        </mxCell>
        <mxCell id="1kbJixUE2xFf0A5VzTWB-53" value="User navigates to the Activity" style="text;html=1;align=center;verticalAlign=middle;whiteSpace=wrap;rounded=0;" vertex="1" parent="1">
          <mxGeometry x="70" y="310" width="140" height="30" as="geometry" />
        </mxCell>
        <mxCell id="1kbJixUE2xFf0A5VzTWB-55" value="User returns to the Activity" style="text;html=1;align=center;verticalAlign=middle;whiteSpace=wrap;rounded=0;" vertex="1" parent="1">
          <mxGeometry x="520" y="400" width="90" height="60" as="geometry" />
        </mxCell>
        <mxCell id="1kbJixUE2xFf0A5VzTWB-59" value="User navigates&amp;nbsp;&lt;span style=&quot;background-color: initial;&quot;&gt;to the Activity&lt;/span&gt;" style="text;html=1;align=center;verticalAlign=middle;whiteSpace=wrap;rounded=0;" vertex="1" parent="1">
          <mxGeometry x="580" y="620" width="110" height="30.5" as="geometry" />
        </mxCell>
        <mxCell id="1kbJixUE2xFf0A5VzTWB-61" value="onDestroy()" style="rounded=1;whiteSpace=wrap;html=1;" vertex="1" parent="1">
          <mxGeometry x="360" y="760" width="120" height="40" as="geometry" />
        </mxCell>
        <mxCell id="1kbJixUE2xFf0A5VzTWB-62" value="Activity Shut Down" style="shape=process;whiteSpace=wrap;html=1;backgroundOutline=1;" vertex="1" parent="1">
          <mxGeometry x="360" y="840" width="120" height="60" as="geometry" />
        </mxCell>
        <mxCell id="1kbJixUE2xFf0A5VzTWB-63" style="edgeStyle=orthogonalEdgeStyle;rounded=0;orthogonalLoop=1;jettySize=auto;html=1;entryX=0.5;entryY=0;entryDx=0;entryDy=0;" edge="1" parent="1" source="1kbJixUE2xFf0A5VzTWB-61" target="1kbJixUE2xFf0A5VzTWB-62">
          <mxGeometry relative="1" as="geometry">
            <mxPoint x="420" y="860" as="targetPoint" />
          </mxGeometry>
        </mxCell>
        <mxCell id="1kbJixUE2xFf0A5VzTWB-65" value="The Activity is finishing or being destroyied by the system" style="text;html=1;align=center;verticalAlign=middle;whiteSpace=wrap;rounded=0;" vertex="1" parent="1">
          <mxGeometry x="234" y="710" width="180" height="30.5" as="geometry" />
        </mxCell>
      </root>
    </mxGraphModel>
  </diagram>
</mxfile>
